<svg id="Capa_1" enable-background="new 0 0 512 512" height="512" viewBox="0 0 512 512" width="512" xmlns="http://www.w3.org/2000/svg" xmlns:xlink="http://www.w3.org/1999/xlink"><linearGradient id="SVGID_1_" gradientUnits="userSpaceOnUse" x1="256" x2="256" y1="481.006" y2="30.994"><stop offset="0" stop-color="#5558ff"/><stop offset="1" stop-color="#00c0ff"/></linearGradient><linearGradient id="SVGID_2_" gradientUnits="userSpaceOnUse" x1="255.019" x2="255.019" y1="420.994" y2="90.994"><stop offset="0" stop-color="#addcff"/><stop offset=".5028" stop-color="#eaf6ff"/><stop offset="1" stop-color="#eaf6ff"/></linearGradient><g><g><g><path d="m437.901 30.994h-363.802c-64.497 0-74.099 122.1-74.099 195 0 89.099 12.898 195 74.099 195h26.7v45c0 12.438 14.561 19.352 23.998 11.999l75.3-56.999h9.903l45-30 45 30h137.901c64.497 0 74.099-122.1 74.099-195 0-89.101-12.898-195-74.099-195z" fill="url(#SVGID_1_)"/></g></g><g><g><path d="m345 210.994h-45v-30h45c8.401 0 15-6.601 15-15v-60c0-8.401-6.599-15-15-15h-60c-41.4 0-75 33.6-75 75v45h-45c-8.401 0-15 6.599-15 15v60c0 8.399 6.599 15 15 15h45v120h90v-120h30c6.899 0 12.898-4.801 14.7-11.4l15-60c2.055-10.267-5.563-18.6-14.7-18.6z" fill="url(#SVGID_2_)"/></g></g></g></svg>